<?xml version="1.0" encoding="iso-8859-1"?>
<!-- Generator: Adobe Illustrator 19.0.0, SVG Export Plug-In . SVG Version: 6.00 Build 0)  -->
<svg version="1.1" id="Capa_1" xmlns="http://www.w3.org/2000/svg" xmlns:xlink="http://www.w3.org/1999/xlink" x="0px" y="0px"
	 viewBox="0 0 449.8 449.8" style="enable-background:new 0 0 449.8 449.8;" xml:space="preserve">
<g>
	<path style="fill:#FDC75B;" d="M295.05,375.3c0-6.5-6.3-11.8-14.1-11.8c-7.8,0-14.1,5.3-14.1,11.8s6.3,11.8,14.1,11.8
		C288.75,387.1,295.05,381.8,295.05,375.3z M357.55,354.9c0-6.5-6.3-11.8-14.1-11.8c-7.8,0-14.2,5.3-14.2,11.8s6.3,11.8,14.2,11.8
		C351.25,366.7,357.55,361.4,357.55,354.9z M222.85,377.8c-5.4-12.4-8.4-26.2-8.4-40.6c0-56.7,46-102.7,102.7-102.7
		c0.1,0,0.2,0,0.3,0c56.6,0.2,102.4,46.1,102.4,102.7c0,56.7-46,102.7-102.7,102.7C274.85,439.9,238.55,414.3,222.85,377.8z
		 M295.05,328.2l62.5-14.7v-15.6c0-6.5-6-11.2-12.3-9.7l-42.5,10c-4.5,1.1-7.7,5.1-7.7,9.7V328.2z"/>
	<path style="fill:#FDC75B;" d="M357.55,297.9v15.6l-62.5,14.7v-20.3c0-4.6,3.2-8.7,7.7-9.7l42.5-10
		C351.55,286.7,357.55,291.4,357.55,297.9z"/>
</g>
<path style="fill:#ED664C;" d="M317.45,109.9v124.6c-0.1,0-0.2,0-0.3,0c-56.7,0-102.7,46-102.7,102.7c0,14.4,3,28.1,8.4,40.6H70.25
	c-22.1,0-40-17.9-40-40V49.9c0-22.1,17.9-40,40-40h152.1v70c0,16.6,13.4,30,30,30H317.45z"/>
<path style="fill:#FDC75B;" d="M222.35,9.9l95.1,99.9h-65.1c-16.6,0-30-13.4-30-30L222.35,9.9L222.35,9.9z"/>
<path d="M327.05,225V109.9c0-2.6-0.8-5-2.5-6.9l-95-99.9c-1.9-2-4.4-3.1-7.1-3.1H70.25c-27.6-0.1-50.2,22.4-50.2,49.9v287.8
	c0,27.6,22.6,50.1,50.2,50.1h146.3c19,38,57.9,62,100.7,62c62.1,0,112.5-50.6,112.5-112.7C429.65,278.6,385.05,230.2,327.05,225z
	 M232.05,34.9l62.1,65h-41.8c-11,0-20.3-9-20.3-20L232.05,34.9L232.05,34.9z M40.05,337.8V49.9c0-16.5,13.6-30,30.2-30h141.8v60
	c0,22.1,18.3,40,40.3,40h54.7v105c-33,2.9-62.5,21-81.2,46h-129c-5.5,0-10,4.5-10,10s4.5,10,10,10h117.4c-6.3,14-9.8,29.8-9.8,46.2
	c0,10.5,1.4,20.8,4.2,30.8H70.25C53.65,367.9,40.05,354.3,40.05,337.8z M317.15,429.9c-37.1,0-70.5-22-85.2-56.1
	c-5-11.6-7.5-23.7-7.5-36.4c0-51.1,41.6-92.5,92.7-92.5h0.3c51,0,92.4,41.5,92.4,92.5C409.85,388.5,368.25,429.9,317.15,429.9z"/>
<path d="M360.25,282.2c-4.8-3.8-11.1-5.2-17.1-3.8l-42.6,10c-9.1,2.1-15.5,10.1-15.5,19.5v46c-1-0.2-2.7-0.3-4.1-0.3
	c-13.3,0-24.1,9.8-24.1,21.8s10.8,21.8,24.2,21.8s24.2-9.8,24.2-21.8l0.2-39.2l42.7-10v7.3c-2-0.2-3-0.3-4.4-0.3
	c-13.3,0-24.3,9.8-24.3,21.8s11,21.8,24.3,21.8s24.3-9.9,24.3-21.9v-57C368.05,291.7,365.05,286,360.25,282.2z M280.95,377.1
	c-2.6,0-4-1.4-4.1-1.8c0.1-0.4,1.6-1.8,4.1-1.8c2.6,0,4.1,1.4,4.1,1.8l0,0C285.05,375.7,283.55,377.1,280.95,377.1z M305.05,315.6
	v-7.7l43-10v7.7L305.05,315.6z M343.65,356.7c-2.6,0-4.2-1.4-4.3-1.8c0.1-0.4,1.7-1.8,4.3-1.8c2.6,0,3.3,1.4,4.3,1.7l0,0
	C347.05,355.3,346.25,356.7,343.65,356.7z"/>
<path d="M96.85,243.9h154c5.5,0,10-4.5,10-10s-4.5-10-10-10h-154c-5.5,0-10,4.5-10,10S91.35,243.9,96.85,243.9z"/>
<path d="M96.85,196.9h94.7c5.5,0,10-4.5,10-10s-4.5-10-10-10h-94.7c-5.5,0-10,4.5-10,10S91.35,196.9,96.85,196.9z"/>
<g>
</g>
<g>
</g>
<g>
</g>
<g>
</g>
<g>
</g>
<g>
</g>
<g>
</g>
<g>
</g>
<g>
</g>
<g>
</g>
<g>
</g>
<g>
</g>
<g>
</g>
<g>
</g>
<g>
</g>
</svg>
